<?xml version="1.0" standalone="no"?>
<!DOCTYPE svg PUBLIC "-//W3C//DTD SVG 20010904//EN"
 "http://www.w3.org/TR/2001/REC-SVG-20010904/DTD/svg10.dtd">
<svg version="1.0" xmlns="http://www.w3.org/2000/svg"
 width="2560.000000pt" height="1440.000000pt" viewBox="0 0 2560.000000 1440.000000"
 preserveAspectRatio="xMidYMid meet">

<g transform="translate(0.000000,1440.000000) scale(0.100000,-0.100000)"
fill="#000000" stroke="none">
<path d="M19083 14387 c-17 -7 -35 -15 -39 -19 -4 -5 -18 -8 -30 -8 -13 0 -26
-5 -29 -11 -4 -5 -12 -8 -18 -6 -7 3 -28 -4 -47 -13 -35 -19 -106 -45 -255
-96 -44 -15 -84 -31 -89 -35 -6 -5 -20 -9 -32 -9 -13 0 -26 -4 -29 -10 -3 -5
-15 -10 -27 -10 -11 0 -32 -6 -46 -14 -27 -14 -120 -49 -217 -81 -27 -9 -54
-20 -60 -24 -5 -4 -30 -13 -55 -20 -25 -7 -57 -19 -72 -27 -14 -8 -35 -14 -45
-14 -10 0 -24 -5 -31 -12 -7 -7 -12 -9 -12 -5 0 4 -17 -1 -37 -12 -21 -10 -76
-30 -122 -45 -46 -14 -90 -31 -97 -37 -8 -6 -14 -9 -14 -5 0 4 -13 0 -30 -9
-16 -8 -38 -15 -50 -15 -11 0 -20 -4 -20 -9 0 -5 -15 -12 -32 -16 -18 -3 -42
-10 -53 -15 -51 -22 -154 -60 -164 -60 -6 0 -27 -7 -48 -16 -21 -9 -47 -20
-58 -25 -109 -43 -156 -59 -172 -59 -11 0 -24 -5 -29 -10 -6 -6 -19 -13 -30
-15 -10 -3 -55 -18 -99 -34 -44 -15 -89 -32 -100 -36 -11 -4 -29 -11 -40 -15
-63 -26 -155 -60 -164 -60 -6 0 -19 -4 -29 -10 -9 -5 -42 -18 -72 -29 -30 -11
-71 -25 -90 -32 -19 -6 -62 -22 -95 -35 -33 -12 -107 -39 -165 -59 -58 -21
-132 -47 -165 -60 -33 -12 -82 -30 -110 -40 -27 -9 -79 -28 -115 -42 -36 -14
-99 -36 -140 -50 -41 -14 -79 -29 -85 -33 -5 -3 -30 -12 -55 -19 -25 -7 -58
-19 -75 -27 -16 -7 -74 -29 -129 -49 l-98 -35 -6774 0 -6773 0 -1 -2462 c0
-1354 -4 -2465 -8 -2469 -4 -4 -36 -17 -72 -29 -111 -39 -129 -46 -136 -53 -4
-4 -15 -7 -25 -7 -10 0 -35 -7 -56 -16 -59 -26 -65 -28 -226 -84 -59 -20 -110
-33 -113 -29 -3 5 -11 9 -17 8 -9 0 -9 -2 1 -6 19 -7 14 -23 -7 -23 -11 0 -23
-4 -26 -10 -3 -6 -15 -10 -25 -10 -11 0 -36 -7 -57 -16 -21 -9 -47 -20 -58
-24 -11 -4 -37 -15 -58 -24 -21 -9 -42 -16 -48 -16 -12 0 -135 -46 -161 -61
-10 -5 -27 -9 -37 -9 -11 0 -22 -4 -26 -9 -3 -5 -31 -17 -63 -26 -31 -8 -65
-20 -76 -26 -10 -6 -57 -23 -105 -39 -114 -38 -159 -55 -167 -63 -4 -4 -18 -7
-31 -7 -21 0 -23 -4 -23 -52 0 -29 4 -48 8 -43 8 12 29 18 55 17 9 0 17 5 17
13 0 8 17 16 43 20 23 4 44 11 47 16 3 4 21 11 40 14 19 3 39 10 46 15 6 6 14
7 17 3 4 -3 7 -1 7 6 0 7 7 11 15 8 8 -4 17 -2 20 4 4 5 11 7 16 4 5 -4 9 -1
9 4 0 6 16 11 36 11 19 0 33 4 29 9 -7 12 3 18 40 22 17 2 33 7 36 11 3 5 18
9 33 10 16 2 30 8 33 15 3 7 25 15 49 19 24 3 44 11 44 16 0 6 7 8 15 4 8 -3
15 -1 15 5 0 6 5 7 10 4 6 -3 10 -1 10 5 0 7 7 10 15 7 8 -4 17 -2 20 4 4 5
11 7 16 4 5 -4 9 -1 9 5 0 6 5 8 10 5 6 -4 17 -1 25 5 8 7 15 9 15 4 0 -5 5
-1 11 9 5 9 20 17 32 17 13 0 28 5 35 12 9 9 12 9 12 -3 0 -8 3 -10 8 -4 12
17 56 38 86 42 17 2 33 9 38 16 6 9 8 9 8 -1 0 -10 4 -10 16 2 15 15 29 20 47
17 4 -1 15 6 24 14 8 9 21 14 29 11 7 -3 14 -1 16 4 2 6 15 11 31 12 15 1 27
6 27 11 0 4 5 5 10 2 6 -4 17 -1 25 5 8 7 15 9 15 4 0 -4 7 1 15 12 11 14 14
15 15 4 0 -9 3 -11 8 -5 4 6 17 15 29 22 17 10 23 10 26 0 4 -9 6 -9 6 1 1 6
7 12 15 12 8 0 16 5 18 11 2 5 22 13 46 16 23 3 42 10 42 16 0 6 3 8 6 4 4 -3
19 0 34 8 15 8 30 12 33 8 3 -3 13 2 22 11 20 20 35 21 35 1 0 -8 -12 -18 -27
-21 -16 -4 -32 -10 -38 -14 -5 -4 -19 -10 -30 -13 -11 -3 -72 -24 -135 -47
-63 -23 -142 -50 -175 -62 -33 -11 -64 -24 -70 -29 -5 -5 -19 -9 -31 -9 -13 0
-25 -4 -28 -9 -3 -5 -16 -11 -28 -14 -13 -3 -61 -19 -108 -37 -47 -17 -112
-40 -145 -51 -33 -11 -64 -24 -69 -29 -6 -6 -20 -10 -31 -10 -12 0 -25 -3 -29
-7 -7 -7 -42 -21 -136 -53 -68 -23 -251 -89 -345 -125 -38 -14 -98 -35 -132
-47 l-63 -20 0 -3669 0 -3669 12800 0 12800 0 0 7200 0 7200 -3092 0 -3093 0
-100 -35 c-55 -20 -109 -39 -120 -44 -11 -5 -36 -14 -55 -21 -19 -7 -44 -16
-55 -21 -19 -9 -126 -46 -270 -95 -38 -13 -79 -28 -90 -33 -11 -5 -36 -14 -55
-21 -19 -7 -44 -16 -55 -21 -11 -5 -51 -20 -90 -33 -38 -13 -101 -36 -140 -51
-38 -15 -79 -29 -90 -32 -21 -5 -25 -7 -123 -47 -35 -14 -68 -26 -73 -26 -11
0 -187 -63 -234 -84 -16 -7 -57 -22 -90 -34 -33 -11 -91 -32 -130 -47 -38 -14
-95 -35 -125 -45 -97 -34 -129 -46 -136 -53 -4 -4 -17 -7 -29 -7 -11 0 -25 -4
-31 -9 -5 -5 -49 -23 -99 -40 -49 -16 -128 -45 -175 -62 -47 -17 -95 -34 -108
-36 -12 -3 -25 -9 -28 -14 -3 -5 -16 -9 -29 -9 -13 0 -26 -4 -30 -10 -3 -5
-20 -13 -38 -19 -59 -17 -220 -75 -312 -111 -11 -5 -53 -20 -92 -34 -40 -14
-103 -37 -140 -50 -38 -14 -88 -31 -113 -39 -25 -8 -58 -21 -75 -27 -68 -28
-58 -24 -287 -106 -67 -23 -121 -44 -173 -64 -76 -31 -163 -60 -178 -60 -9 0
-17 5 -17 12 0 6 3 8 7 5 3 -4 14 0 23 8 9 8 25 16 36 18 10 1 25 6 32 10 6 5
17 5 22 2 6 -3 10 -1 10 4 0 6 3 10 8 9 4 -1 17 3 30 10 12 7 27 10 32 7 6 -3
10 -1 10 4 0 6 13 11 29 11 16 0 31 4 33 10 2 5 14 11 28 12 14 2 28 7 31 12
9 11 78 36 102 36 9 0 17 5 17 11 0 5 8 9 18 7 11 -2 26 3 34 9 8 7 23 14 34
16 10 1 24 6 30 9 6 4 23 9 38 12 15 3 34 10 41 16 8 7 19 9 25 5 5 -3 10 -1
10 4 0 6 13 11 29 11 16 0 31 5 33 11 2 6 15 12 30 12 14 1 24 5 22 8 -4 7 86
39 110 39 9 0 16 5 16 11 0 5 8 9 18 7 11 -2 26 3 34 9 8 7 23 14 34 16 10 2
29 9 42 15 12 7 27 10 32 7 6 -3 10 -1 10 5 0 6 4 9 9 5 5 -3 13 0 16 6 4 5
13 8 21 5 8 -3 14 -1 14 4 0 6 14 10 30 10 20 0 30 5 30 15 0 8 9 15 21 15 11
0 28 4 37 9 9 5 28 11 42 12 14 2 28 8 31 12 3 5 12 10 20 11 8 2 22 6 32 11
10 4 21 5 24 2 3 -4 17 2 31 13 13 11 29 17 34 14 5 -3 20 2 34 11 13 9 29 13
34 10 6 -3 10 -1 10 5 0 6 4 9 9 5 5 -3 12 -1 16 5 4 6 11 8 16 5 5 -4 9 -1 9
4 0 6 16 11 35 11 24 0 35 5 35 15 0 8 9 15 21 15 11 0 29 5 40 11 11 6 34 11
51 11 16 1 32 7 35 14 3 8 9 12 13 9 5 -3 11 -1 14 4 4 5 14 8 24 7 9 -2 27 5
40 15 13 10 30 15 38 12 8 -3 14 0 14 6 0 6 3 10 8 9 4 -1 18 4 30 11 13 7 26
10 29 7 4 -3 12 -1 20 5 7 6 13 8 13 3 0 -5 4 -3 9 5 5 7 22 15 37 17 16 1 30
8 32 13 2 6 13 11 23 11 11 0 29 5 41 11 11 6 32 13 46 15 15 3 29 10 33 15 3
6 10 9 15 8 5 -1 17 1 27 6 10 4 21 5 24 2 3 -4 17 2 30 13 13 10 31 16 39 13
8 -3 14 0 14 6 0 6 3 10 8 9 4 -1 17 3 30 10 12 7 27 10 32 7 5 -3 11 -1 15 4
3 6 13 7 22 4 12 -5 14 -3 8 7 -5 9 -4 11 3 6 7 -4 12 -2 12 4 0 7 6 10 14 7
8 -3 20 1 26 9 7 8 22 14 34 14 12 0 26 4 31 9 6 6 26 13 45 16 19 3 38 11 42
18 4 6 10 8 14 5 4 -4 16 -1 26 7 11 7 27 11 34 8 8 -3 14 0 14 7 0 7 7 10 15
6 8 -3 15 -1 15 4 0 5 7 7 15 4 8 -4 15 -2 15 4 0 9 39 25 66 27 6 0 22 8 37
18 14 9 33 17 42 17 9 0 27 7 41 16 13 9 27 14 31 10 3 -3 11 -2 17 4 7 5 27
12 46 15 19 3 37 10 40 14 6 10 60 25 78 22 6 -1 12 3 12 10 0 6 7 9 15 5 8
-3 15 -1 15 5 0 6 5 7 11 3 6 -3 15 -1 19 6 4 6 19 13 33 13 14 1 23 6 19 11
-3 5 1 7 9 4 9 -3 26 3 40 13 13 10 34 19 46 19 12 0 25 5 29 11 4 8 9 7 15
-2 7 -11 9 -10 9 5 0 11 5 16 14 13 7 -3 17 -2 22 3 5 5 24 12 43 15 18 3 40
12 48 20 13 14 40 20 71 16 6 -1 12 3 12 10 0 6 7 9 15 5 8 -3 15 -1 15 5 0 6
4 8 9 5 5 -3 11 1 14 8 3 8 18 16 34 19 15 2 -21 4 -82 5 -61 0 -124 -5 -142
-11z m-1840 -3813 c44 -9 107 -25 140 -36 75 -24 237 -106 243 -123 4 -10
-136 -318 -150 -333 -2 -2 -18 4 -35 12 -42 22 -49 20 -68 -18 l-16 -35 -69
35 c-134 68 -289 117 -405 129 -55 6 -63 4 -72 -14 -33 -61 9 -131 106 -174
32 -14 128 -47 213 -72 196 -59 299 -107 371 -173 139 -127 176 -349 89 -529
-56 -113 -191 -213 -357 -262 -40 -12 -73 -25 -73 -29 0 -4 -10 -8 -22 -8 -13
-1 -48 -7 -78 -13 -81 -18 -294 -15 -392 4 -79 16 -161 39 -238 67 -55 20
-201 105 -242 141 l-37 32 75 150 c42 83 78 152 80 154 2 2 12 -3 22 -12 28
-26 37 -21 62 33 25 54 31 58 51 34 20 -25 96 -74 103 -67 3 4 6 1 6 -5 0 -16
126 -78 230 -114 63 -22 111 -31 187 -35 l101 -6 11 41 c26 93 -54 170 -213
207 -92 22 -299 92 -383 130 -87 40 -150 100 -195 187 -32 61 -33 67 -33 183
0 110 2 125 27 178 52 110 106 159 283 259 44 25 103 53 130 62 61 20 197 46
206 40 4 -2 10 -1 12 4 8 11 239 -5 330 -24z m-1785 -167 l-3 -172 -60 0 c-49
0 -60 -3 -63 -17 -3 -17 -28 -18 -358 -18 l-354 0 0 -125 0 -125 380 0 380 0
0 -175 0 -175 -65 0 c-49 0 -65 -3 -65 -14 0 -20 -24 -21 -342 -20 l-288 1 0
-129 0 -128 433 -2 432 -3 0 -170 0 -170 -58 2 c-51 2 -60 0 -64 -17 -5 -20
-16 -20 -639 -20 l-634 0 0 309 c0 170 0 459 0 642 -1 184 -1 403 0 487 l0
152 50 0 c49 0 50 1 50 30 l0 30 338 2 c185 2 471 2 635 0 l297 -3 -2 -172z
m-6158 -2 l0 -175 -61 0 c-52 0 -62 -3 -66 -20 -5 -19 -14 -20 -179 -20 l-174
0 0 -610 c0 -335 -3 -611 -7 -611 -5 -1 -30 -2 -58 -3 -39 -1 -50 -5 -53 -18
-3 -16 -21 -18 -208 -18 l-204 0 -1 578 c0 317 0 601 1 629 l1 53 -238 2 -238
3 -2 163 -2 162 49 0 c51 0 54 3 53 48 -1 9 144 12 693 12 l694 0 0 -175z
m1228 -632 l-3 -808 -63 0 c-52 0 -62 -3 -62 -17 0 -17 -16 -18 -204 -18
l-204 0 -1 588 c0 323 -1 589 -2 592 0 3 0 25 1 50 1 25 3 115 4 200 l1 155
53 3 c50 3 52 4 52 33 l0 29 215 0 215 0 -2 -807z m1497 615 c49 -106 110
-239 137 -296 26 -57 48 -105 48 -107 0 -2 23 -52 50 -110 28 -58 50 -110 50
-116 0 -32 27 18 120 224 57 128 136 301 174 385 l70 152 38 0 c32 0 40 5 53
30 l16 30 229 0 230 0 0 -62 c1 -107 2 -1522 1 -1538 -1 -12 -14 -15 -61 -14
-52 1 -60 -2 -60 -18 0 -17 -12 -18 -180 -18 l-180 0 0 38 c-1 20 -1 191 -1
380 0 188 -3 342 -7 342 -4 0 -61 -124 -127 -276 -126 -292 -129 -296 -192
-290 -18 2 -34 -4 -43 -16 -13 -16 -32 -18 -144 -19 -71 0 -132 3 -136 8 -4 4
-26 53 -50 108 -24 55 -57 132 -75 170 -17 39 -52 117 -76 175 l-44 105 -3
-342 -2 -343 -43 -2 c-23 0 -50 0 -60 0 -11 1 -21 -6 -24 -18 -5 -19 -14 -20
-184 -20 l-179 0 0 795 0 795 50 0 c49 0 50 1 50 30 l0 30 234 0 233 0 88
-192z m-4065 -5113 c184 -404 337 -735 340 -735 3 0 146 307 317 683 l311 682
73 3 74 3 22 50 22 49 405 0 406 0 0 -1425 0 -1425 -110 0 -110 0 0 -30 0 -30
-315 0 -315 0 -1 278 c-1 152 -4 459 -8 681 l-6 403 -222 -508 -221 -509 -97
-3 -96 -3 -11 -30 -10 -29 -236 2 -236 3 -221 506 -220 506 -3 -619 -2 -618
-110 0 -110 0 0 -30 0 -30 -320 0 -320 0 0 1405 0 1405 90 0 90 0 0 50 0 50
408 0 407 0 335 -735z m-3410 -695 l597 -1415 -124 -3 -124 -3 6 -29 7 -30
-379 0 -380 0 -99 258 -100 257 -515 0 -514 0 -90 -227 -90 -228 -96 0 -97 0
-12 -30 -12 -30 -364 0 c-214 0 -364 4 -364 9 0 5 207 490 461 1078 254 587
523 1212 599 1388 l138 320 74 5 73 5 23 48 22 47 382 -2 382 -3 596 -1415z
m9100 -2 l598 -1418 -130 0 c-124 0 -128 -1 -118 -19 5 -11 10 -24 10 -30 0
-8 -117 -11 -379 -11 l-378 0 -100 258 -100 257 -514 0 -514 0 -90 -227 -90
-227 -96 -1 -97 0 -12 -30 -12 -30 -370 0 c-203 0 -367 3 -365 8 3 4 202 464
443 1022 240 558 510 1184 599 1390 l162 375 74 5 74 5 22 48 23 47 382 -2
381 -3 597 -1417z m4546 8 c327 -775 594 -1413 594 -1418 0 -4 -56 -8 -125 -8
-121 0 -125 -1 -115 -19 5 -11 10 -24 10 -30 0 -8 -117 -11 -379 -11 l-379 0
-45 118 c-26 64 -71 180 -101 257 l-54 140 -513 0 -514 0 -91 -225 -90 -225
-98 -3 -97 -3 -11 -29 -10 -30 -369 0 -368 0 24 58 c14 31 285 660 603 1397
l579 1340 72 3 73 3 21 49 22 50 384 -3 384 -2 593 -1409z m3474 698 l535
-715 3 665 2 666 90 0 90 0 0 50 0 50 355 0 355 0 0 -1420 0 -1420 -110 0
-110 0 0 -30 0 -30 -315 0 -315 0 -533 712 -532 712 -3 -682 -2 -682 -110 0
-110 0 0 -30 0 -30 -335 0 -335 0 0 1400 0 1400 90 0 90 0 0 50 0 50 333 0
333 0 534 -716z"/>
<path d="M16810 10555 c-42 -8 -87 -19 -100 -24 -20 -9 -17 -9 15 -3 61 11
301 6 375 -7 121 -22 307 -93 382 -145 19 -13 36 -62 18 -51 -4 2 -26 -36 -49
-86 -33 -72 -40 -94 -30 -105 28 -34 45 -16 113 127 76 161 78 144 -29 197
-72 36 -167 69 -255 88 -97 22 -348 27 -440 9z"/>
<path d="M16728 10184 c-35 -19 -48 -43 -48 -93 0 -84 76 -132 328 -205 241
-71 316 -109 399 -200 25 -28 58 -76 72 -106 23 -50 26 -66 26 -180 0 -116 -2
-129 -28 -185 -15 -33 -49 -82 -75 -109 -34 -35 -40 -45 -22 -36 57 29 159
123 160 148 0 6 4 12 9 12 16 0 52 110 58 175 7 81 -12 188 -45 248 -34 64
-125 146 -196 180 -32 15 -130 50 -219 77 -89 27 -191 62 -227 76 -107 44
-157 104 -146 176 7 43 -1 47 -46 22z"/>
<path d="M16403 9466 l-21 -43 51 -31 c186 -112 394 -165 540 -137 61 12 51
22 -27 28 -136 12 -330 88 -462 182 l-61 44 -20 -43z"/>
<path d="M14220 10535 c0 -13 68 -15 555 -15 l555 0 1 -47 c0 -27 0 -83 0
-125 0 -43 3 -78 7 -79 4 0 25 -1 47 -2 l40 -2 3 143 3 142 -606 0 c-531 0
-605 -2 -605 -15z"/>
<path d="M14493 10045 l0 -155 379 0 378 0 0 -130 0 -130 50 0 50 0 0 145 0
145 -381 0 -380 0 1 78 c1 42 1 105 1 140 l-1 62 -48 0 -48 0 -1 -155z"/>
<path d="M14495 9560 c-2 -3 -3 -74 -2 -158 l2 -152 433 0 432 0 0 -129 0
-130 48 2 47 2 3 142 3 143 -433 2 -433 3 -3 143 -3 142 -45 -2 c-25 -2 -47
-5 -49 -8z"/>
<path d="M7940 10538 c0 -17 32 -18 615 -18 l615 0 1 -27 c0 -16 0 -74 0 -130
l0 -103 49 0 50 0 0 148 0 148 -665 0 c-631 0 -665 -1 -665 -18z"/>
<path d="M8697 9598 c1 -325 6 -594 10 -598 4 -4 25 -5 46 -3 l37 5 0 594 0
594 -47 0 -48 0 2 -592z"/>
<path d="M10123 10535 c0 -13 22 -15 139 -15 l138 0 0 -763 0 -764 50 -1 50
-1 0 780 0 779 -188 0 c-161 0 -189 -2 -189 -15z"/>
<path d="M11500 10538 c0 -17 12 -18 158 -18 l158 0 101 -222 c56 -123 152
-335 214 -472 l114 -248 26 58 c32 69 34 81 15 120 -8 16 -29 61 -46 99 -233
509 -313 682 -321 690 -6 6 -93 10 -214 11 -192 1 -205 -1 -205 -18z"/>
<path d="M12794 10551 c-2 -2 -4 -10 -4 -18 0 -10 34 -13 165 -13 l165 0 2
-762 3 -762 45 0 45 0 0 780 0 779 -208 0 c-114 0 -210 -1 -213 -4z"/>
<path d="M12687 9798 c-36 -84 -111 -256 -167 -382 -127 -292 -120 -268 -75
-264 l38 3 64 150 c36 83 71 161 78 175 7 14 39 86 71 160 55 129 58 139 59
223 1 48 1 87 0 87 -1 0 -31 -69 -68 -152z"/>
<path d="M11731 9471 l0 -471 30 -1 c16 -1 37 -2 47 -3 16 -1 17 24 20 367 l2
368 -42 97 c-23 53 -45 101 -49 106 -4 5 -8 -204 -8 -463z"/>
<path d="M6850 5935 l0 -25 282 -2 282 -3 371 -813 c204 -447 375 -819 380
-828 8 -12 21 9 59 95 27 61 46 118 43 128 -3 13 -586 1293 -660 1451 l-10 22
-374 0 -373 0 0 -25z"/>
<path d="M9136 5944 c-3 -9 -6 -20 -6 -25 0 -5 121 -9 290 -9 l290 0 0 -1355
0 -1355 90 0 90 0 0 1380 0 1380 -374 0 c-332 0 -375 -2 -380 -16z"/>
<path d="M7270 4052 l0 -852 90 0 90 0 -2 658 -3 657 -84 190 c-46 105 -85
192 -87 194 -2 2 -4 -379 -4 -847z"/>
<path d="M8762 4200 c-167 -382 -306 -701 -309 -707 -4 -10 13 -13 65 -13 l70
0 40 93 c22 50 131 299 242 552 l200 460 -2 155 -3 155 -303 -695z"/>
<path d="M3210 5934 c-6 -14 -10 -27 -10 -29 0 -3 122 -6 271 -7 l270 -3 567
-1347 567 -1348 103 0 c56 0 102 2 102 4 0 2 -260 622 -579 1377 l-579 1374
-351 3 -351 2 -10 -26z"/>
<path d="M3144 4673 l-200 -508 395 -3 c217 -1 395 -1 397 1 2 1 1 13 -3 25
l-5 22 -310 0 -309 0 7 22 c3 12 72 186 151 387 80 201 145 375 145 386 0 20
-49 153 -62 168 -3 4 -96 -221 -206 -500z"/>
<path d="M3402 4838 c-23 -58 -82 -208 -132 -334 -49 -126 -90 -232 -90 -236
0 -5 117 -8 260 -8 143 0 260 3 260 8 0 4 -58 157 -129 341 l-129 333 -40
-104z"/>
<path d="M2733 3608 c-5 -7 -42 -96 -82 -198 -40 -102 -75 -191 -78 -198 -4
-10 11 -12 68 -10 l73 3 78 195 c42 107 77 201 77 208 1 8 -18 12 -63 12 -39
0 -67 -5 -73 -12z"/>
<path d="M12310 5941 c-5 -11 -10 -24 -10 -30 0 -8 85 -11 269 -11 l269 0 54
-127 c29 -71 285 -678 568 -1350 l515 -1223 103 0 c56 0 102 1 102 3 0 1 -261
621 -579 1377 l-580 1375 -350 3 c-338 2 -351 2 -361 -17z"/>
<path d="M12243 4673 l-200 -508 395 -3 c217 -1 396 -1 398 1 2 1 1 13 -3 25
l-5 22 -309 0 c-170 0 -309 3 -309 7 0 3 61 162 136 352 75 190 144 366 154
391 l17 45 -31 82 c-18 46 -35 85 -38 88 -2 3 -95 -223 -205 -502z"/>
<path d="M12407 4602 c-70 -180 -127 -330 -127 -334 0 -5 117 -8 261 -8 244 0
261 1 255 18 -44 123 -251 652 -255 652 -3 0 -63 -148 -134 -328z"/>
<path d="M11757 3428 c-42 -106 -79 -201 -83 -211 -6 -16 0 -18 66 -15 l72 3
74 185 c102 253 100 230 17 230 l-69 0 -77 -192z"/>
<path d="M16860 5941 c-5 -11 -10 -24 -10 -30 0 -8 85 -11 269 -11 l268 0 461
-1092 c253 -601 509 -1209 568 -1350 l108 -258 104 0 c79 0 103 3 99 13 -14
34 -1019 2417 -1084 2570 l-75 177 -349 0 c-334 0 -349 -1 -359 -19z"/>
<path d="M16794 4676 l-201 -511 395 -3 c217 -1 396 -1 398 1 2 1 1 13 -3 25
l-5 22 -309 0 c-170 0 -309 3 -309 7 0 5 68 181 152 393 83 212 151 389 151
395 0 8 -62 177 -66 181 -1 1 -93 -228 -203 -510z"/>
<path d="M16954 4595 l-131 -335 264 0 c248 0 265 1 259 18 -39 110 -252 652
-256 652 -3 0 -64 -151 -136 -335z"/>
<path d="M16307 3428 c-42 -106 -79 -201 -83 -211 -6 -16 0 -18 66 -15 l73 3
78 200 c44 109 79 203 79 207 0 4 -31 8 -68 8 l-68 0 -77 -192z"/>
<path d="M20520 5930 l0 -30 203 0 203 0 639 -856 640 -855 3 147 c2 121 0
151 -14 171 -8 14 -256 346 -551 739 l-535 714 -294 0 -294 0 0 -30z"/>
<path d="M22440 5930 l0 -30 220 0 220 0 0 -1350 0 -1350 90 0 90 0 0 1380 0
1380 -310 0 -310 0 0 -30z"/>
<path d="M20960 4012 l0 -812 90 0 90 0 0 693 0 694 -85 113 c-47 62 -87 115
-90 118 -3 3 -5 -360 -5 -806z"/>
</g>
</svg>
